<?xml version="1.0" standalone="no"?><!DOCTYPE svg PUBLIC "-//W3C//DTD SVG 1.1//EN" "http://www.w3.org/Graphics/SVG/1.1/DTD/svg11.dtd"><svg class="icon" width="200px" height="200.00px" viewBox="0 0 1024 1024" version="1.1" xmlns="http://www.w3.org/2000/svg"><path d="M803.310345 114.758621c0-48.551724 39.724138-88.275862 88.275862-88.275862H220.689655c-48.551724 0-88.275862 39.724138-88.275862 88.275862s39.724138 88.275862 88.275862 88.275862h97.103448L291.310345 1024h105.931034L370.758621 203.034483h520.827586" fill="#FFFFFF" /><path d="M370.758621 203.034483h520.827586v794.482758H370.758621z m0 0" fill="#ADF9D2" /><path d="M132.413793 114.758621v794.482758c0 48.551724 39.724138 88.275862 88.275862 88.275862h97.103448V203.034483H220.689655c-48.551724 0-88.275862-39.724138-88.275862-88.275862z m0 0" fill="#009F96" /><path d="M891.586207 176.551724H399.006897c-14.128552 0-27.369931 10.593103-28.248276 24.717242-0.878345 15.006897 11.475862 28.248276 26.482758 28.248275h467.862069v741.517242H397.241379c-15.006897 0-26.482759 11.475862-26.482758 26.482758s11.475862 26.482759 26.482758 26.482759h494.344828c15.006897 0 26.482759-11.475862 26.482759-26.482759V203.034483c0-15.006897-11.475862-26.482759-26.482759-26.482759z m0 0" fill="#444B54" /><path d="M220.689655 971.034483c-34.432 0-61.793103-27.361103-61.793103-61.793104V210.983724C176.551724 222.455172 197.742345 229.517241 220.689655 229.517241h68.855173c14.128552 0 27.369931-10.593103 28.248275-24.717241C318.671448 189.793103 306.317241 176.551724 291.310345 176.551724H222.455172C190.673655 176.551724 163.310345 154.482759 158.896552 122.707862 154.482759 85.627586 183.613793 52.965517 220.689655 52.965517h573.793104c-10.593103 16.776828-17.655172 37.075862-17.655173 59.144828 0 15.01131 10.593103 28.25269 25.604414 29.131034 14.998069 0.878345 27.361103-11.475862 27.361103-26.482758 0-34.432 27.361103-61.793103 61.793104-61.793104 13.241379 0 25.604414-10.593103 26.482759-24.717241 0.878345-15.885241-11.475862-28.248276-26.482759-28.248276H220.689655C157.131034 0 105.931034 51.2 105.931034 114.758621v794.482758c0 63.558621 51.2 114.758621 114.758621 114.758621h70.62069c15.006897 0 26.482759-11.475862 26.482758-26.482759s-11.475862-26.482759-26.482758-26.482758z m0 0" fill="#444B54" /><path d="M503.172414 644.413793h211.862069c15.006897 0 26.482759-11.475862 26.482758-26.482759v-123.586206c0-15.006897-11.475862-26.482759-26.482758-26.482759h-211.862069c-15.006897 0-26.482759 11.475862-26.482759 26.482759v123.586206c0 15.006897 11.475862 26.482759 26.482759 26.482759z m0 0" fill="#FFFFFF" /></svg>