<?xml version="1.0" standalone="no"?><!DOCTYPE svg PUBLIC "-//W3C//DTD SVG 1.1//EN" "http://www.w3.org/Graphics/SVG/1.1/DTD/svg11.dtd"><svg class="icon" width="200px" height="200.00px" viewBox="0 0 1024 1024" version="1.1" xmlns="http://www.w3.org/2000/svg"><path d="M837.079365 186.920635h162.539683V105.650794c0-44.698413-36.571429-81.269841-81.269842-81.269842s-81.269841 36.571429-81.269841 81.269842z m0 0" fill="#FFFFFF" /><path d="M918.349206 24.380952H235.68254c-44.698413 0-81.269841 36.571429-81.269842 81.269842v812.698412h601.396826c44.698413 0 81.269841-36.571429 81.269841-81.269841V105.650794c0-44.698413 36.571429-81.269841 81.269841-81.269842z m0 0" fill="#FFFFFF" /><path d="M918.349206 24.380952H235.68254c-44.698413 0-81.269841 36.571429-81.269842 81.269842v812.698412h601.396826c44.698413 0 81.269841-36.571429 81.269841-81.269841V105.650794c0-44.698413 36.571429-81.269841 81.269841-81.269842z m0 0" fill="#D3D8DD" /><path d="M650.15873 495.746032H292.571429c-13.815873 0-24.380952-10.565079-24.380953-24.380953s10.565079-24.380952 24.380953-24.380952h357.587301c13.815873 0 24.380952 10.565079 24.380953 24.380952s-10.565079 24.380952-24.380953 24.380953z m0 0M568.888889 251.936508h-195.047619c-13.815873 0-24.380952-10.565079-24.380953-24.380952s10.565079-24.380952 24.380953-24.380953h195.047619c13.815873 0 24.380952 10.565079 24.380952 24.380953s-10.565079 24.380952-24.380952 24.380952z m0 0M643.657143 617.650794h-349.460318c-13.815873 0-24.380952-10.565079-24.380952-24.380953s10.565079-24.380952 24.380952-24.380952h349.460318c13.819937 0 24.380952 10.565079 24.380952 24.380952s-10.561016 24.380952-24.380952 24.380953z m0 0M674.539683 837.079365v-81.269841H121.904762v81.269841c0 44.698413 36.571429 81.269841 81.269841 81.269841h552.634921c-44.698413 0-81.269841-36.571429-81.269841-81.269841z m0 0" fill="#FFFFFF" /><path d="M918.349206 0H235.68254C177.168254 0 130.031746 47.136508 130.031746 105.650794v89.396825c0 13.815873 10.565079 24.380952 24.380952 24.380952s24.380952-10.565079 24.380953-24.380952V105.650794c0-31.699302 25.189587-56.888889 56.888889-56.888889h593.269841c-10.565079 16.253968-16.253968 35.762794-16.253968 56.888889v731.428571c0 31.699302-25.189587 56.888889-56.888889 56.888889s-56.888889-25.189587-56.888889-56.888889v-81.269841c0-13.815873-10.565079-24.380952-24.380952-24.380953h-121.904762c-13.815873 0-24.380952 10.565079-24.380953 24.380953s10.565079 24.380952 24.380953 24.380952h97.523809v56.888889c0 21.126095 6.501587 40.634921 16.253968 56.888889h-138.15873c-13.815873 0-24.380952 10.565079-24.380952 24.380952s10.565079 24.380952 24.380952 24.380953h227.555556c58.514286 0 105.650794-47.136508 105.650793-105.650794V105.650794c0-31.699302 25.189587-56.888889 56.888889-56.888889s56.888889 25.189587 56.888889 56.888889v56.888889h-56.888889c-13.815873 0-24.380952 10.565079-24.380952 24.380952s10.565079 24.380952 24.380952 24.380952h81.269842c13.815873 0 24.380952-10.565079 24.380952-24.380952V105.650794c0-58.514286-47.136508-105.650794-105.650794-105.650794z m0 0" fill="#444B54" /><path d="M422.603175 739.555556v260.063492l-154.412699-97.52381-154.412698 97.52381V739.555556" fill="#FF5576" /><path d="M512 544.507937c0 134.649905-109.159619 243.809524-243.809524 243.809523S24.380952 679.157841 24.380952 544.507937s109.159619-243.809524 243.809524-243.809524 243.809524 109.159619 243.809524 243.809524z m0 0" fill="#FFFFFF" /><path d="M536.380952 544.507937c0-147.911111-120.279365-268.190476-268.190476-268.190477S0 396.596825 0 544.507937s120.279365 268.190476 268.190476 268.190476c47.136508 0 91.834921-12.190476 130.031746-34.133334V954.920635l-117.032635-73.951492c-8.126984-4.882286-17.871238-4.882286-25.998222 0L138.15873 955.72927V820.825397c0-13.815873-10.565079-24.380952-24.380952-24.380953s-24.380952 10.565079-24.380953 24.380953v178.793651c0 8.935619 4.872127 17.062603 12.999112 21.126095s17.072762 4.063492 25.199746-0.808635l141.403428-89.396825L410.412698 1019.936508c4.063492 2.438095 8.126984 4.063492 12.999112 4.063492 4.063492 0 8.126984-0.808635 11.381841-3.254857 8.126984-4.063492 12.999111-12.190476 12.999111-21.126095V744.427683C501.436952 694.857143 536.380952 624.152381 536.380952 544.507937z m-487.619047 0c0-121.096127 98.332444-219.428571 219.428571-219.428572s219.428571 98.332444 219.428572 219.428572-98.332444 219.428571-219.428572 219.428571S48.761905 665.604063 48.761905 544.507937z m0 0" fill="#444B54" /></svg>