<?xml version="1.0" standalone="no"?><!DOCTYPE svg PUBLIC "-//W3C//DTD SVG 1.1//EN" "http://www.w3.org/Graphics/SVG/1.1/DTD/svg11.dtd"><svg class="icon" width="64px" height="64.00px" viewBox="0 0 1024 1024" version="1.1" xmlns="http://www.w3.org/2000/svg"><path d="M1183.99999997 1290.66666653h32V1066.66666653h-224v32h192z" fill="#4FCAC3" /><path d="M1188.67199997 1071.33866653l-192 192a16 16 0 0 0 22.656 22.656l192-192a16 16 0 0 0-22.656-22.656z" fill="#4FCAC3" /><path d="M380.47999997 610.19733333L200.95999997 789.74933333l22.624 22.624 179.52-179.52z" fill="#FF9DAC" /><path d="M203.77599997 673.81333333l135.776 135.744 22.624-22.624-135.776-135.776zM756.22399997 609.81333333A240 240 0 1 0 416.79999997 270.32533333 240 240 0 0 0 756.22399997 609.81333333z m-362.048 22.592a272 272 0 1 1 384.64-384.64 272 272 0 0 1-384.64 384.64z" fill="#FF9DAC" /><path d="M815.99999997 1706.66666653a240 240 0 1 0 0-480 240 240 0 0 0 0 480z m0 32a272 272 0 1 1 0-544 272 272 0 0 1 0 544z" fill="#4FCAC3" /></svg>