<?xml version="1.0" standalone="no"?><!DOCTYPE svg PUBLIC "-//W3C//DTD SVG 1.1//EN" "http://www.w3.org/Graphics/SVG/1.1/DTD/svg11.dtd"><svg class="icon" width="200px" height="200.00px" viewBox="0 0 1024 1024" version="1.1" xmlns="http://www.w3.org/2000/svg"><path d="M444.219072 999.523882c-53.834428 0-97.884487-44.041901-97.884487-97.884487v-309.967541h195.768973v309.967541c0 53.842585-44.04394 97.884487-97.884486 97.884487z m0 0" fill="#FFFFFF" /><path d="M292.500156 461.159205c39.153795-59.544357 11.415778-139.481315-55.465836-163.140811-39.159912 59.554553-11.423935 140.303137 55.467876 163.140811z m0 0" fill="#ADF9D2" /><path d="M292.500156 485.630327c-4.898303 0-8.976823-1.623251-13.055343-4.07852-11.415778-7.335219-14.682673-22.837674-7.337258-34.251413 14.682673-22.026049 17.947528-48.942243 8.970705-74.235187-8.157041-25.282747-27.729859-44.041901-52.200981-53.020764-13.055343-4.07852-19.580976-18.759154-15.502455-30.994715 4.07852-13.047186 17.947528-19.578937 30.996754-15.500416 39.151755 13.866969 69.334845 44.050058 83.201814 83.201814 13.869008 39.153795 8.157041 81.570406-14.680634 116.64568-4.898303 8.976823-12.235561 12.235561-20.392602 12.23556z m0 0" fill="#ADF9D2" /><path d="M292.500156 485.630327c-2.445073 0-5.709928-0.811626-8.15704-1.623251-39.151755-13.869008-69.334845-44.052098-83.201814-83.203853-13.049226-39.153795-8.157041-81.570406 14.680634-116.64568 6.523593-9.788449 17.945489-13.866969 28.549642-9.788448 41.604985 14.682673 73.413365 48.122461 84.835261 90.539071 3.258738 13.057383-4.07852 26.104569-17.133864 30.183089-13.047186 3.266895-26.096412-4.07852-30.174932-17.125706-5.709928-20.392601-17.945489-36.706683-35.081392-48.130618-5.703811 17.947528-5.703811 36.706683 0 54.654211 8.157041 25.282747 27.738016 44.04394 52.209138 53.020764 13.047186 4.07852 19.578937 18.761193 15.500416 30.996754-2.45323 11.419857-11.423935 17.125707-22.024009 17.125706z m0 0" fill="#3F4A54" /><path d="M444.219072 926.110517c-13.869008 0-24.471122-10.602113-24.471122-24.471122v-228.397135c0-13.858812 10.602113-24.471122 24.471122-24.471122s24.471122 10.61231 24.471121 24.471122v228.397135c0 13.869008-10.604153 24.471122-24.471121 24.471122z m0 0" fill="#D3D8DD" /><path d="M582.888761 567.200733h-114.198568c0-13.858812-10.604153-24.471122-24.471121-24.471122s-24.471122 10.61231-24.471122 24.471122v24.471121c0 13.869008 10.602113 24.471122 24.471122 24.471122h75.858437c-1.62529 4.900342-2.447112 10.61231-2.447112 16.314081v269.182338c0 40.785203-32.628162 73.413365-73.413365 73.413365s-73.413365-32.628162-73.413365-73.413365v-269.182338c0-35.884861-29.361267-65.256324-65.256324-65.256324-13.866969 0-24.471122 10.61231-24.471122 24.471121 0 13.869008 10.604153 24.471122 24.471122 24.471122 8.978862 0 16.314081 7.345415 16.314081 16.314081v269.182338c0 67.711594 54.654211 122.355608 122.355608 122.355609s122.355608-54.644015 122.355609-122.355609v-269.182338c0-8.968666 7.345415-16.314081 16.314081-16.314081 13.871047 0 24.471122-10.602113 24.471121-24.471122 0-13.858812-10.600074-24.471122-24.471121-24.471121z m0 0" fill="#3F4A54" /><path d="M455.640968 479.106734c48.122461-146.82673 221.05376-209.635942 352.386191-128.065537-48.128579 146.82673-221.059878 209.635942-352.384152 128.065537z m0 0" fill="#ADF9D2" /><path d="M455.640968 479.106734c28.549642 17.947528 59.546396 28.549642 90.54111 33.449984 75.858438-43.238433 134.591169-111.753495 165.585884-195.768973-108.488639-13.869008-219.420312 49.753869-256.126994 162.318989z m0 0" fill="#009F96" /><path d="M621.228891 25.579358c105.227862 168.85074 24.471122 392.349572-164.774259 453.527376-105.221745-168.85074-24.471122-391.537947 164.77222-453.527376z m0 0" fill="#ADF9D2" /><path d="M821.076384 330.646557c-32.628162-20.392601-67.703437-32.628162-106.041527-37.518308-13.049226-1.631408-25.284786 8.157041-27.738016 21.206266-1.62529 13.055343 8.157041 25.290904 21.212384 27.735977 23.651339 3.266895 47.310835 9.790488 68.515062 21.206266-22.839714 52.207099-66.069989 94.625749-122.355608 114.198568-45.677388 16.314081-93.805966 17.133864-137.849907 2.45323 71.781957-38.34013 127.247793-101.151381 155.797435-179.454892C707.687403 204.212428 696.273664 98.992723 642.431078 11.710349c-5.703811-9.788449-17.939371-13.866969-28.549641-10.602113-97.064704 33.439788-173.744964 106.853153-208.818199 203.106231-34.25957 95.437375-24.471122 199.033829 28.549642 284.682755 1.633447 3.266895 3.266895 5.711968 5.711967 8.15704 0.813665 0.813665 1.633447 1.633447 2.447112 1.633448s0.811626 0.811626 1.631408 0.811625c0.813665 0.821822 1.633447 0.821822 2.447113 1.633448 41.596828 25.284786 88.913781 38.34013 136.222577 38.34013 30.183089 0 60.358022-4.898303 89.727446-16.314082 76.672103-27.738016 134.591169-88.096038 159.875956-165.587923 3.264855-9.788449-0.813665-21.212384-10.604153-26.922312z m-369.513937-110.120048c27.729859-75.858438 84.829143-134.591169 159.062291-164.764062 37.520347 70.14647 43.232315 152.530541 15.494299 228.397135-26.918234 76.670063-84.829143 135.402795-159.062291 165.585884-37.520347-70.966253-43.232315-153.352362-15.494299-229.216918z m0 0" fill="#3F4A54" /><path d="M613.07185 315.154297c0.811626-1.631408 1.631408-4.07852 2.445073-5.709928 0 0 0-0.815704 0.819783-0.815704 3.258738-8.157041 7.337258-16.314081 9.782331-24.471122 4.898303-12.235561-1.62529-26.10253-14.682673-31.000832-12.235561-4.892185-26.10253 1.631408-30.992676 14.68879-20.392601 56.277462-60.366179 101.141185-112.56716 128.059419-12.235561 5.709928-17.133864 20.392601-10.602113 32.628163 0.813665 0.819783 0.813665 2.45323 1.62529 4.07852 2.45323 5.709928 4.898303 11.421896 8.157041 17.133863 63.631034-26.10253 115.829976-72.601739 146.013065-134.591169z m0 0" fill="#FFFFFF" /></svg>