<?xml version="1.0" standalone="no"?><!DOCTYPE svg PUBLIC "-//W3C//DTD SVG 1.1//EN" "http://www.w3.org/Graphics/SVG/1.1/DTD/svg11.dtd"><svg class="icon" width="64px" height="64.00px" viewBox="0 0 1024 1024" version="1.1" xmlns="http://www.w3.org/2000/svg"><path d="M773.3 362.7H736v-37.3c0-123.7-100.3-224-224-224s-224 100.3-224 224v37.3h-37.3c-41.2 0-74.7 33.4-74.7 74.7V848c0 41.2 33.4 74.7 74.7 74.7h522.7c41.2 0 74.7-33.4 74.7-74.7V437.3c-0.1-41.2-33.5-74.6-74.8-74.6z m-112 0H362.7v-37.3c0-82.3 67-149.3 149.3-149.3s149.3 67 149.3 149.3v37.3z" fill="#4C4C4C" /><path d="M773.3 848H250.7V437.3h522.6z" fill="#26CD7A" /><path d="M512 549.3c-20.6 0-37.3 16.7-37.3 37.3v112c0 20.6 16.7 37.3 37.3 37.3s37.3-16.7 37.3-37.3v-112c0-20.6-16.7-37.3-37.3-37.3z" fill="#4C4C4C" /></svg>