<?xml version="1.0" standalone="no"?><!DOCTYPE svg PUBLIC "-//W3C//DTD SVG 1.1//EN" "http://www.w3.org/Graphics/SVG/1.1/DTD/svg11.dtd"><svg class="icon" width="64px" height="64.00px" viewBox="0 0 1024 1024" version="1.1" xmlns="http://www.w3.org/2000/svg"><path d="M800.00000003 416h32V192h-224v32h192z" fill="#4FCAC3" /><path d="M804.67200003 196.672l-192 192a16 16 0 0 0 22.656 22.656l192-192a16 16 0 0 0-22.656-22.656z" fill="#4FCAC3" /><path d="M-238.1866666 588.864L-417.7066666 768.416l22.624 22.624 179.52-179.52z" fill="#FF9DAC" /><path d="M-414.8906666-158.18666654l135.776 135.744 22.624-22.624-135.776-135.776zM137.5573334-222.18666654A240 240 0 1 0-201.8666666-561.67466654 240 240 0 0 0 137.5573334-222.18666654z m-362.048 22.592a272 272 0 1 1 384.64-384.64 272 272 0 0 1-384.64 384.64z" fill="#FF9DAC" /><path d="M432.00000003 832a240 240 0 1 0 0-480 240 240 0 0 0 0 480z m0 32a272 272 0 1 1 0-544 272 272 0 0 1 0 544z" fill="#4FCAC3" /></svg>