<?xml version="1.0" standalone="no"?><!DOCTYPE svg PUBLIC "-//W3C//DTD SVG 1.1//EN" "http://www.w3.org/Graphics/SVG/1.1/DTD/svg11.dtd"><svg class="icon" width="200px" height="200.00px" viewBox="0 0 1024 1024" version="1.1" xmlns="http://www.w3.org/2000/svg"><path fill="#d4237a" d="M363.524576 254.292804c-5.115723 0-9.38238-1.71093-13.649038-4.266658l-57.173214-36.693257c-46.933236-29.866604-75.093177-81.066498-75.093177-136.533049V25.599947c0-14.506636 11.09331-25.599947 25.599946-25.599947s25.599947 11.09331 25.599947 25.599947v51.199893c0 38.39992 18.773294 73.382247 51.199893 93.866471l57.173215 36.693257c11.942375 7.679984 15.359968 23.039952 7.675717 34.99086-4.266658 7.673584-12.799973 11.940242-21.333289 11.940242z m0 0"  /><path fill="#d4237a" d="M292.70019 648.531982l57.173214 36.693257c4.266658 2.555728 9.386647 4.266658 13.653305 4.266658 8.533316 0 17.066631-4.266658 21.333289-11.942375 7.679984-11.950908 4.266658-28.168475-7.675717-34.992994L320.008933 605.865404c-29.01754-18.773294-47.790834-48.639899-50.350828-82.77316-3.406926-34.133262 8.533316-67.408926 33.284197-91.310744 6.826652-6.824519 16.209033-12.799973 27.30661-18.76476l382.292537-191.9996c16.209033-7.684251 29.009006-17.066631 40.106583-27.308744 31.569001-30.726336 49.49323-71.684117 49.49323-116.908556V25.599947c0-14.506636-11.09331-25.599947-25.599946-25.599947s-25.599947 11.09331-25.599947 25.599947v25.599946h-371.199227c-14.506636 0-25.599947 11.09331-25.599946 25.599947s11.09331 25.599947 25.599946 25.599947h367.781634c-4.266658 19.626626-13.649038 36.693257-28.157808 51.199893h-254.292804c-14.506636 0-25.599947 11.09331-25.599946 25.599947s11.09331 25.599947 25.599946 25.599946h165.544189L307.20896 367.781634c-16.217566 7.684251-29.01754 17.066631-40.106583 27.308743C231.256052 429.225772 213.340356 477.865671 218.456078 528.2165c5.126389 49.491097 31.575401 93.866471 74.241979 120.315482z m0 0"  /><path fill="#d4237a" d="M752.650165 628.905356c31.566868-29.866604 49.491097-72.533182 49.491097-116.906423 0-55.466551-28.159941-106.666444-75.093177-136.533049l-57.173214-36.693256c-11.950908-7.679984-28.159941-4.266658-34.99086 7.675717-7.675717 11.950908-4.266658 28.168475 7.682117 34.992994l57.173214 36.691123c7.677851 5.115723 14.510903 10.239979 20.477824 17.066631H465.075298c-14.506636 0-25.599947 11.09331-25.599947 25.599947s11.09331 25.599947 25.599947 25.599947h282.448478c1.708796 8.533316 3.417593 17.066631 3.417593 25.599946s-0.857598 17.066631-3.417593 25.599947H379.742142c-14.506636 0-25.599947 11.09331-25.599946 25.599947s11.09331 25.599947 25.599946 25.599946h339.625959c-0.853332 0.849065-1.71093 1.706663-2.559994 3.417593-6.826652 6.824519-16.217566 12.799973-27.30661 18.764761l-382.292537 191.9996c-16.217566 7.684251-29.01754 17.066631-40.106583 27.308743C235.522709 861.015806 217.607013 901.973588 217.607013 947.198027v0.849065l1.706663 51.199893c0.853332 13.659705 11.942375 24.750882 25.599947 24.750882h0.853332c14.506636-0.849065 24.746615-12.799973 24.746615-26.449012l-1.706663-50.350828c0-30.715669 11.942375-58.884144 34.133262-79.359835 6.826652-6.822386 16.209033-12.799973 27.30661-18.773294l382.292537-192.848665c16.209033-8.533316 29.009006-17.066631 40.106583-27.308743z m0 0"  /><path fill="#d4237a" d="M806.40792 945.491364c2.559995-58.026546-25.599947-111.786434-75.093177-143.359702l-57.173214-36.693257c-11.950908-7.679984-28.159941-4.266658-34.990861 7.675718-7.675717 11.950908-4.266658 28.168475 7.682118 34.992993l17.066631 11.091177h-113.493097c-14.506636 0-25.599947 11.09331-25.599947 25.599947s11.09331 25.599947 25.599947 25.599947h180.910556c11.940242 14.506636 19.624492 32.426599 22.182354 51.199893h-373.759221c-14.506636 0-25.599947 11.09331-25.599947 25.599947s11.09331 25.599947 25.599947 25.599946h375.465884v25.599947c0 14.506636 11.09331 25.599947 25.599947 25.599947 14.510903 0 25.599947-11.950908 25.599947-25.599947v-48.639899-2.559994-1.706663z m0 0"  /></svg>