<?xml version="1.0" standalone="no"?><!DOCTYPE svg PUBLIC "-//W3C//DTD SVG 1.1//EN" "http://www.w3.org/Graphics/SVG/1.1/DTD/svg11.dtd"><svg class="icon" width="64px" height="64.00px" viewBox="0 0 1024 1024" version="1.1" xmlns="http://www.w3.org/2000/svg"><path d="M992 416h32V192h-224v32h192z" fill="#4FCAC3" /><path d="M996.672 196.672l-192 192a16 16 0 0 0 22.656 22.656l192-192a16 16 0 0 0-22.656-22.656z" fill="#4FCAC3" /><path d="M188.48 588.864L8.96 768.416l22.624 22.624 179.52-179.52z" fill="#FF9DAC" /><path d="M11.776 652.48l135.776 135.744 22.624-22.624-135.776-135.776zM564.224 588.48A240 240 0 1 0 224.8 248.992 240 240 0 0 0 564.224 588.48z m-362.048 22.592a272 272 0 1 1 384.64-384.64 272 272 0 0 1-384.64 384.64z" fill="#FF9DAC" /><path d="M624 832a240 240 0 1 0 0-480 240 240 0 0 0 0 480z m0 32a272 272 0 1 1 0-544 272 272 0 0 1 0 544z" fill="#4FCAC3" /></svg>